<svg xmlns="http://www.w3.org/2000/svg" viewBox="0 0 256 256" width="256" height="256" role="img" aria-label="Explorer">
  <defs>
    <linearGradient id="exCover" x1="0" y1="0" x2="1" y2="1">
      <stop offset="0" stop-color="#fcd34d"/><stop offset=".55" stop-color="#f59e0b"/><stop offset="1" stop-color="#b45309"/>
    </linearGradient>
    <linearGradient id="exPageL" x1="0" y1="0" x2="1" y2="1"><stop offset="0" stop-color="#ffffff"/><stop offset="1" stop-color="#fde9c8"/></linearGradient>
    <linearGradient id="exPageR" x1="0" y1="0" x2="1" y2="1"><stop offset="0" stop-color="#fff9ee"/><stop offset="1" stop-color="#f6d9a8"/></linearGradient>
    <linearGradient id="exGloss" x1="0" y1="0" x2="0" y2="1"><stop offset="0" stop-color="#ffffff" stop-opacity=".55"/><stop offset="1" stop-color="#ffffff" stop-opacity="0"/></linearGradient>
    <radialGradient id="exLens" cx="38%" cy="34%" r="70%">
      <stop offset="0" stop-color="#cffafe" stop-opacity=".95"/><stop offset=".5" stop-color="#22d3ee" stop-opacity=".4"/><stop offset="1" stop-color="#0e7490" stop-opacity=".2"/>
    </radialGradient>
    <linearGradient id="exLensRing" x1="0" y1="0" x2="1" y2="1"><stop offset="0" stop-color="#67e8f9"/><stop offset="1" stop-color="#0891b2"/></linearGradient>
    <filter id="exShadow" x="-20%" y="-20%" width="140%" height="140%">
      <feDropShadow dx="0" dy="7" stdDeviation="9" flood-color="#04121a" flood-opacity="0.42"/>
    </filter>
  </defs>
  <g filter="url(#exShadow)">
    <path d="M26 70 q102 -34 102 0 q0 -34 102 0 v128 q-102 -30 -102 0 q0 -30 -102 0 z" fill="url(#exCover)"/>
    <path d="M40 80 q88 -26 84 4 v118 q-4 -24 -84 -6 z" fill="url(#exPageL)"/>
    <path d="M216 80 q-88 -26 -84 4 v118 q4 -24 84 -6 z" fill="url(#exPageR)"/>
    <g stroke="#c99a52" stroke-width="4" stroke-linecap="round" opacity=".8">
      <line x1="56" y1="104" x2="112" y2="92"/><line x1="56" y1="122" x2="112" y2="110"/><line x1="56" y1="140" x2="112" y2="128"/>
      <line x1="144" y1="92" x2="200" y2="104"/><line x1="144" y1="110" x2="200" y2="122"/><line x1="144" y1="128" x2="200" y2="140"/>
    </g>
    <path d="M128 74 v128" stroke="#b45309" stroke-width="5" opacity=".5"/>
    <path d="M40 80 q88 -26 84 4 v34 q-4 -24 -84 -6 z" fill="url(#exGloss)"/>
    <!-- marque-page vert (accent) -->
    <rect x="118" y="60" width="18" height="40" fill="#22c55e"/><path d="M118 100 l9 -9 9 9z" fill="#0a0e14" opacity=".25"/>
  </g>
  <g filter="url(#exShadow)">
    <circle cx="178" cy="170" r="42" fill="url(#exLens)" stroke="url(#exLensRing)" stroke-width="10"/>
    <circle cx="178" cy="170" r="42" fill="none" stroke="#ffffff" stroke-opacity=".55" stroke-width="3"/>
    <path d="M163 153 a21 21 0 0 1 19 -8" stroke="#ffffff" stroke-opacity=".85" stroke-width="6" fill="none" stroke-linecap="round"/>
    <rect x="202" y="196" width="22" height="48" rx="11" transform="rotate(-45 213 220)" fill="url(#exLensRing)"/>
  </g>
</svg>
